<?xml version="1.0" standalone="no"?><!DOCTYPE svg PUBLIC "-//W3C//DTD SVG 1.1//EN" "http://www.w3.org/Graphics/SVG/1.1/DTD/svg11.dtd"><svg xmlns="http://www.w3.org/2000/svg" width="1150" height="600" viewBox="0 0 1150 600"><g class="sankey" transform="translate(130,25)"><g class="groups"><g class="group" transform="translate(0,27.188693048501865)" style="display: inline;"><rect x="-10" y="-20" width="21" height="247.5095443880149" style="fill: rgb(238, 238, 238); stroke: rgb(187, 187, 187); stroke-width: 0.5;"/><text x="-10" y="-25" style="fill: rgb(153, 153, 153);">Raw material extraction</text></g><g class="group" transform="translate(222.25,232.933395912082)" style="display: none;"><rect x="-10" y="-20" width="21" height="41.764841524434814" style="fill: rgb(238, 238, 238); stroke: rgb(187, 187, 187); stroke-width: 0.5;"/><text x="-10" y="-25" style="fill: rgb(153, 153, 153);"/></g><g class="group" transform="translate(222.25,425.95055752248174)" style="display: none;"><rect x="-10" y="-20" width="21" height="38.24710698536114" style="fill: rgb(238, 238, 238); stroke: rgb(187, 187, 187); stroke-width: 0.5;"/><text x="-10" y="-25" style="fill: rgb(153, 153, 153);"/></g><g class="group" transform="translate(222.25,471.8554887131852)" style="display: none;"><rect x="-10" y="-20" width="21" height="55.97838700388752" style="fill: rgb(238, 238, 238); stroke: rgb(187, 187, 187); stroke-width: 0.5;"/><text x="-10" y="-25" style="fill: rgb(153, 153, 153);"/></g><g class="group" transform="translate(444.5,232.933395912082)" style="display: none;"><rect x="-10" y="-20" width="21" height="41.764841524434814" style="fill: rgb(238, 238, 238); stroke: rgb(187, 187, 187); stroke-width: 0.5;"/><text x="-10" y="-25" style="fill: rgb(153, 153, 153);"/></g><g class="group" transform="translate(444.5,421.53579910167446)" style="display: none;"><rect x="-10" y="-20" width="21" height="38.24710698536114" style="fill: rgb(238, 238, 238); stroke: rgb(187, 187, 187); stroke-width: 0.5;"/><text x="-10" y="-25" style="fill: rgb(153, 153, 153);"/></g><g class="group" transform="translate(444.5,471.85548871318525)" style="display: none;"><rect x="-10" y="-20" width="21" height="55.97838700388752" style="fill: rgb(238, 238, 238); stroke: rgb(187, 187, 187); stroke-width: 0.5;"/><text x="-10" y="-25" style="fill: rgb(153, 153, 153);"/></g><g class="group" transform="translate(666.75,27.188693048501865)" style="display: inline;"><rect x="-10" y="-20" width="21" height="247.50954438801492" style="fill: rgb(238, 238, 238); stroke: rgb(187, 187, 187); stroke-width: 0.5;"/><text x="-10" y="-25" style="fill: rgb(153, 153, 153);">Use of flat glass</text></g><g class="group" transform="translate(666.75,296.99214662191355)" style="display: inline;"><rect x="-10" y="-20" width="21" height="171.31688235026445" style="fill: rgb(238, 238, 238); stroke: rgb(187, 187, 187); stroke-width: 0.5;"/><text x="-10" y="-25" style="fill: rgb(153, 153, 153);">Use of containers</text></g><g class="group" transform="translate(666.75,471.8554887131852)" style="display: none;"><rect x="-10" y="-20" width="21" height="55.97838700388752" style="fill: rgb(238, 238, 238); stroke: rgb(187, 187, 187); stroke-width: 0.5;"/><text x="-10" y="-25" style="fill: rgb(153, 153, 153);"/></g><g class="group" transform="translate(889,27.188693048501865)" style="display: inline;"><rect x="-10" y="-20" width="21" height="247.50954438801492" style="fill: rgb(238, 238, 238); stroke: rgb(187, 187, 187); stroke-width: 0.5;"/><text x="-10" y="-25" style="fill: rgb(153, 153, 153);">Disposal</text></g></g><g class="links"><g class="link" style="opacity: 0.8;"><path d="M667.75,157.30769864623323 A109.0665306701845 109.0665306701845 0.3971363529818621 0 0 709.9346606409928,148.8193093340723 L846.041781047731,91.73302191956584 A111.0665306701845 111.0665306701845 0.3971363529818621 0 1 889,83.08897735258014 L889,85.08897735258014 A109.0665306701845 109.0665306701845 0.3971363529818621 0 0 846.8153393590072,93.57736666474106 L710.708218952269,150.66365407924755 A111.0665306701845 111.0665306701845 0.3971363529818621 0 1 667.75,159.30769864623323 Z" style="fill: rgb(106, 61, 154);"/><title>Automotive → Automotive
Automotive
773m</title><text class="label" dy="0.35em" x="671.75" y="158.30769864623323"/></g><g class="link" style="opacity: 0.8;"><path d="M223.25,496.18441604197557 A21.112746994624324 21.112746994624324 1.5769685642872273 0 1 202.1376551651472,474.94135698619453 L201.1376551651472,401.65157010906677 A21.112746994624324 21.112746994624324 1.5769685642872273 0 1 222.25,380.39616665668115 L222.25,378.39616665668115 A23.112746994624324 23.112746994624324 1.5769685642872273 0 0 199.1376932615419,401.65157010906677 L200.1376932615419,474.94135698619453 A23.112746994624324 23.112746994624324 1.5769685642872273 0 0 223.25,498.18441604197557 Z" style="fill: rgb(202, 178, 214);"/><title> → Container glass melting
Other CG
1.38</title><text class="label" dy="0.35em" x="227.25" y="497.18441604197557"/></g><g class="link" style="opacity: 0.8;"><path d="M222.25,496.18441604197557 A0 0 0 0 1 222.25,496.18441604197557 L445.5,496.1844160419756 A0 0 0 0 0 445.5,496.1844160419756 L445.5,498.1844160419756 A0 0 0 0 1 445.5,498.1844160419756 L222.25,498.18441604197557 A0 0 0 0 0 222.25,498.18441604197557 Z" style="fill: rgb(202, 178, 214);"/><title> → 
Other CG
1.38</title><text class="label" dy="0.35em" x="449.5" y="497.1844160419756"/></g><g class="link" style="opacity: 0.8;"><path d="M667.75,436.65956929708085 A6.649459675097188 6.649459675097188 1.6132400507755222 0 1 674.393471174106,443.59117207339915 L673.393471174106,466.6582075751933 A6.649459675097188 6.649459675097188 1.6132400507755222 0 1 666.75,473.5049483882824 L666.75,471.5049483882824 A4.649459675097188 4.649459675097188 1.6132400507755222 0 0 671.3952723733864,466.5733456119641 L672.3952723733864,443.50631011017 A4.649459675097188 4.649459675097188 1.6132400507755222 0 0 667.75,438.65956929708085 Z" style="fill: rgb(202, 178, 214);"/><title>Other CG → 
Other CG
1.38</title><text class="label" dy="0.35em" x="671.75" y="437.65956929708085"/></g><g class="link" style="opacity: 0.8;"><path d="M444.5,496.1844160419756 A0 0 0 0 0 444.5,496.1844160419756 L667.75,496.18441604197557 A0 0 0 0 1 667.75,496.18441604197557 L667.75,498.18441604197557 A0 0 0 0 0 667.75,498.18441604197557 L444.5,498.1844160419756 A0 0 0 0 1 444.5,498.1844160419756 Z" style="fill: rgb(202, 178, 214);"/><title> → 
Other CG
1.38</title><text class="label" dy="0.35em" x="671.75" y="497.18441604197557"/></g><g class="link" style="opacity: 0.8;"><path d="M667.75,434.5978308287655 A65.82203029480966 65.82203029480966 0.8834903832244907 0 0 718.6276702363225,410.53705462737196 L836.2577393763904,267.22852624369693 A68.23430908802779 68.23430908802779 0.8834903832244907 0 1 889,242.28595864329867 L889,244.69823743651682 A65.82203029480966 65.82203029480966 0.8834903832244907 0 0 838.1223297636775,268.75901363791036 L720.4922606236096,412.0675420215854 A68.23430908802779 68.23430908802779 0.8834903832244907 0 1 667.75,437.0101096219836 Z" style="fill: rgb(202, 178, 214);"/><title>Other CG → Other CG
Other CG
2.56</title><text class="label" dy="0.35em" x="671.75" y="435.80397022537454"/></g><g class="link" style="opacity: 0.8;"><path d="M445.5,367.5049113467511 A121.36080787160627 121.36080787160627 0.3611799548906871 0 1 488.3862764357196,375.3350494382139 L625.1751804693341,427.0071373690362 A117.64960972819377 117.64960972819377 0.3611799548906871 0 0 666.75,434.5978308287655 L666.75,438.309028972178 A121.36080787160627 121.36080787160627 0.3611799548906871 0 1 623.8637235642803,430.4788908807152 L487.0748195306658,378.8068029498929 A117.64960972819377 117.64960972819377 0.3611799548906871 0 0 445.5,371.2161094901636 Z" style="fill: rgb(202, 178, 214);"/><title>Container glass forming → Other CG
Other CG
3.94</title><text class="label" dy="0.35em" x="449.5" y="369.36051041845735"/></g><g class="link" style="opacity: 0.8;"><path d="M445.5,82.52266435176024 A110.66974062081928 110.66974062081928 0.403139066970188 0 1 488.91659041669243,91.39460948727155 L624.902658440242,149.39244126357002 A106.66969450251145 106.66969450251145 0.403139066970188 0 0 666.75,157.94371889320243 L666.75,161.94376501151024 A110.66974062081928 110.66974062081928 0.403139066970188 0 1 623.3334095833077,153.07181987599895 L487.347341559758,95.07398809970049 A106.66969450251145 106.66969450251145 0.403139066970188 0 0 445.5,86.52271047006808 Z" style="fill: rgb(106, 61, 154);"/><title>Flat glass forming → Automotive
Automotive
4.25</title><text class="label" dy="0.35em" x="449.5" y="84.52268741091416"/></g><g class="link" style="opacity: 0.8;"><path d="M223.25,491.33927896610084 A19.51490829423557 19.51490829423557 1.5769685642872273 0 1 203.73546342958903,471.7039207880224 L202.73546342958903,398.41413391089463 A19.51490829423557 19.51490829423557 1.5769685642872273 0 1 222.25,378.74670698158394 L222.25,373.5510295808064 A24.710585695013076 24.710585695013076 1.5769685642872273 0 0 197.53988499710007,398.41413391089463 L198.53988499710007,471.7039207880224 A24.710585695013076 24.710585695013076 1.5769685642872273 0 0 223.25,496.53495636687836 Z" style="fill: rgb(255, 127, 0);"/><title> → Container glass melting
Food
5.52</title><text class="label" dy="0.35em" x="227.25" y="493.9371176664896"/></g><g class="link" style="opacity: 0.8;"><path d="M222.25,491.33927896610084 A0 0 0 0 1 222.25,491.33927896610084 L445.5,491.3392789661009 A0 0 0 0 0 445.5,491.3392789661009 L445.5,496.5349563668784 A0 0 0 0 1 445.5,496.5349563668784 L222.25,496.53495636687836 A0 0 0 0 0 222.25,496.53495636687836 Z" style="fill: rgb(255, 127, 0);"/><title> → 
Food
5.52</title><text class="label" dy="0.35em" x="449.5" y="493.93711766648966"/></g><g class="link" style="opacity: 0.8;"><path d="M667.75,395.85569368698077 A10.845137075874693 10.845137075874693 1.5872410988582815 0 1 678.5936706808476,406.8791685318146 L677.5936706808476,467.4120484989372 A10.845137075874693 10.845137075874693 1.5872410988582815 0 1 666.75,478.3500854641571 L666.75,473.15440806337955 A5.649459675097187 5.649459675097187 1.5872410988582815 0 0 672.39869579913,467.3266106193232 L673.39869579913,406.7937306522006 A5.649459675097187 5.649459675097187 1.5872410988582815 0 0 667.75,401.0513710877583 Z" style="fill: rgb(255, 127, 0);"/><title>Food → 
Food
5.52</title><text class="label" dy="0.35em" x="671.75" y="398.45353238736953"/></g><g class="link" style="opacity: 0.8;"><path d="M444.5,491.3392789661009 A0 0 0 0 0 444.5,491.3392789661009 L667.75,491.33927896610084 A0 0 0 0 1 667.75,491.33927896610084 L667.75,496.53495636687836 A0 0 0 0 0 667.75,496.53495636687836 L444.5,496.5349563668784 A0 0 0 0 1 444.5,496.5349563668784 Z" style="fill: rgb(255, 127, 0);"/><title> → 
Food
5.52</title><text class="label" dy="0.35em" x="671.75" y="493.9371176664896"/></g><g class="link" style="opacity: 0.8;"><path d="M445.5,86.52271047006808 A74.97130499443934 74.97130499443934 0.7370602130238832 0 1 495.88926824259886,105.98169053981466 L621.2896250305995,219.80924549234476 A67.63788711087498 67.63788711087498 0.7370602130238832 0 0 666.75,237.36481955295244 L666.75,244.69823743651682 A74.97130499443934 74.97130499443934 0.7370602130238832 0 1 616.3607317574011,225.23925736677023 L490.9603749694005,111.41170241424011 A67.63788711087498 67.63788711087498 0.7370602130238832 0 0 445.5,93.85612835363243 Z" style="fill: rgb(177, 89, 40);"/><title>Flat glass forming → Other FG
Other FG
7.79</title><text class="label" dy="0.35em" x="449.5" y="90.18941941185025"/></g><g class="link" style="opacity: 0.8;"><path d="M1,236.66777189278577 A87.55783628105911 87.55783628105911 0.5832286792402326 0 1 49.22000441080073,251.14205414940577 L168.66796575443743,329.9529617432709 A97.29420474769225 97.29420474769225 0.5832286792402326 0 0 222.25,346.0367737841598 L222.25,354.0672393278908 A105.32467029142325 105.32467029142325 0.5832286792402326 0 1 164.24541375467703,336.65590219194456 L44.79745241104033,257.84499459807944 A79.52737073732811 79.52737073732811 0.5832286792402326 0 0 1,244.69823743651676 Z" style="fill: rgb(178, 223, 138);"/><title>Limestone → Container glass melting
Limestone
8.53</title><text class="label" dy="0.35em" x="5" y="240.68300466465126"/></g><g class="link" style="opacity: 0.8;"><path d="M223.25,425.95055752248174 A4.999999999999999 4.999999999999999 1.5863830337072056 0 1 218.25060735128466,420.8726271434813 L217.25060735128466,393.4992037307453 A4.999999999999999 4.999999999999999 1.5863830337072056 0 1 222.25,388.29273331713944 L222.25,380.0456263317783 A13.247106985361121 13.247106985361121 1.5863830337072056 0 0 209.00450214412803,393.4992037307453 L210.00450214412803,420.8726271434813 A13.247106985361121 13.247106985361121 1.5863830337072056 0 0 223.25,434.1976645078429 Z" style="fill: rgb(227, 26, 28);"/><title> → Container glass melting
Forming scrap
8.76</title><text class="label" dy="0.35em" x="227.25" y="430.0741110151623"/></g><g class="link" style="opacity: 0.8;"><path d="M445.5,371.2161094901636 A13.247106985361121 13.247106985361121 1.6019655080046087 0 1 458.74067260581586,384.8760511000435 L457.74067260581586,416.3799784289136 A13.247106985361121 13.247106985361121 1.6019655080046087 0 1 444.5,429.7829060870356 L444.5,421.53579910167446 A4.999999999999999 4.999999999999999 1.6019655080046087 0 0 449.4975714019852,416.1229644771557 L450.4975714019852,384.6190371482856 A4.999999999999999 4.999999999999999 1.6019655080046087 0 0 445.5,379.46321647552475 Z" style="fill: rgb(227, 26, 28);"/><title>Container glass forming → 
Forming scrap
8.76</title><text class="label" dy="0.35em" x="449.5" y="375.3396629828442"/></g><g class="link" style="opacity: 0.8;"><path d="M222.25,425.95055752248174 A995.8764465073194 995.8764465073194 0.02192510938770975 0 0 244.08295070705358,425.7112030178002 L423.48624505671944,421.7771357620888 A1004.1235534926806 1004.1235534926806 0.02192510938770975 0 1 445.5,421.53579910167446 L445.5,429.7829060870356 A995.8764465073194 995.8764465073194 0.02192510938770975 0 0 423.66704929294644,430.02226059171716 L244.26375494328053,433.95632784742855 A1004.1235534926806 1004.1235534926806 0.02192510938770975 0 1 222.25,434.1976645078429 Z" style="fill: rgb(227, 26, 28);"/><title> → 
Forming scrap
8.76</title><text class="label" dy="0.35em" x="449.5" y="425.659352594355"/></g><g class="link" style="opacity: 0.8;"><path d="M223.25,379.46321647552475 A73.52579108947883 73.52579108947883 0.8380306024305162 0 1 277.90371873421685,403.80554506128385 L379.5049025152589,516.7069602679212 A87.43807503278893 87.43807503278893 0.8380306024305162 0 0 444.5,545.6552561218774 L444.5,554.484772963492 A96.26759187440359 96.26759187440359 0.8380306024305162 0 1 372.9416826862689,522.6132715645522 L271.34049890522687,409.7118563579148 A64.69627424786417 64.69627424786417 0.8380306024305162 0 0 223.25,388.29273331713944 Z" style="fill: rgb(251, 154, 153);"/><title>Container glass melting → Process emissions
Emission
9.38</title><text class="label" dy="0.35em" x="227.25" y="383.8779748963321"/></g><g class="link" style="opacity: 0.8;"><path d="M667.75,386.2065785141083 A62.27406308741389 62.27406308741389 0.8789249320521823 0 0 715.7043573040258,363.66208311844036 L833.6153082400689,221.34128277358312 A71.9231782602864 71.9231782602864 0.8789249320521823 0 1 889,195.30360864824505 L889,204.95272382111753 A62.27406308741389 62.27406308741389 0.8789249320521823 0 0 841.0456426959742,227.49721921678545 L723.1346917599311,369.8180195616427 A71.9231782602864 71.9231782602864 0.8789249320521823 0 1 667.75,395.85569368698077 Z" style="fill: rgb(255, 127, 0);"/><title>Food → Food
Food
10.3</title><text class="label" dy="0.35em" x="671.75" y="391.03113610054453"/></g><g class="link" style="opacity: 0.8;"><path d="M1,225.5709918768957 A70.26168824092976 70.26168824092976 0.656120520534023 0 0 43.86296635861725,210.9821960469558 L172.6174708765502,111.85316292736212 A81.35846825681982 81.35846825681982 0.656120520534023 0 1 222.25,94.96028556914389 L222.25,106.05706558503395 A70.26168824092976 70.26168824092976 0.656120520534023 0 0 179.38703364138277,120.64586141497384 L50.63252912344981,219.77489453456755 A81.35846825681982 81.35846825681982 0.656120520534023 0 1 1,236.6677718927858 Z" style="fill: rgb(178, 223, 138);"/><title>Limestone → Flat glass melting
Limestone
11.8</title><text class="label" dy="0.35em" x="5" y="231.11938188484075"/></g><g class="link" style="opacity: 0.8;"><path d="M223.25,232.933395912082 A5.000000000000001 5.000000000000001 1.5775238364144504 0 1 218.25011314803746,227.89975861771944 L217.25011314803746,122.93469189132855 A5.000000000000001 5.000000000000001 1.5775238364144504 0 1 222.25,117.82190710946877 L222.25,106.05706558503395 A16.764841524434807 16.764841524434807 1.5775238364144504 0 0 205.48553785734853,122.93469189132855 L206.48553785734853,227.89975861771944 A16.764841524434807 16.764841524434807 1.5775238364144504 0 0 223.25,244.69823743651682 Z" style="fill: rgb(227, 26, 28);"/><title> → Flat glass melting
Forming scrap
12.5</title><text class="label" dy="0.35em" x="227.25" y="238.8158166742994"/></g><g class="link" style="opacity: 0.8;"><path d="M445.5,93.85612835363244 A16.764841524434807 16.764841524434807 1.5793203665231488 0 1 462.2642324676893,110.7638723227139 L461.2642324676893,227.89077622956418 A16.764841524434807 16.764841524434807 1.5793203665231488 0 1 444.5,244.69823743651682 L444.5,232.933395912082 A5.000000000000001 5.000000000000001 1.5793203665231488 0 0 449.49981835296666,227.79049346743537 L450.49981835296666,110.66358956058508 A5.000000000000001 5.000000000000001 1.5793203665231488 0 0 445.5,105.62096987806726 Z" style="fill: rgb(227, 26, 28);"/><title>Flat glass forming → 
Forming scrap
12.5</title><text class="label" dy="0.35em" x="449.5" y="99.73854911584985"/></g><g class="link" style="opacity: 0.8;"><path d="M222.25,232.933395912082 A0 0 0 0 0 222.25,232.933395912082 L445.5,232.933395912082 A0 0 0 0 0 445.5,232.933395912082 L445.5,244.69823743651682 A0 0 0 0 0 445.5,244.69823743651682 L222.25,244.69823743651682 A0 0 0 0 0 222.25,244.69823743651682 Z" style="fill: rgb(227, 26, 28);"/><title> → 
Forming scrap
12.5</title><text class="label" dy="0.35em" x="449.5" y="238.8158166742994"/></g><g class="link" style="opacity: 0.8;"><path d="M223.25,105.62096987806726 A87.43807503278893 87.43807503278893 1.365912723889553 0 1 308.85927905865697,175.26948885971703 L370.83647157490304,473.5244174337032 A75.2371378013874 75.2371378013874 1.365912723889553 0 0 444.5,533.4543188904759 L444.5,545.6552561218773 A87.43807503278893 87.43807503278893 1.365912723889553 0 1 358.89072094134303,476.00673714022753 L296.91352842509696,177.7518085662414 A75.2371378013874 75.2371378013874 1.365912723889553 0 0 223.25,117.82190710946875 Z" style="fill: rgb(251, 154, 153);"/><title>Flat glass melting → Process emissions
Emission
13.0</title><text class="label" dy="0.35em" x="227.25" y="111.721438493768"/></g><g class="link" style="opacity: 0.8;"><path d="M1,171.9974240287334 A76.11925738064112 76.11925738064112 0.8152820433894097 0 1 56.408654801660404,195.92451420728642 L160.73816711768518,306.6836231586563 A84.50367647228276 84.50367647228276 0.8152820433894097 0 0 222.25,333.2462455087503 L222.25,346.03677378415983 A97.29420474769225 97.29420474769225 0.8152820433894097 0 1 151.42769838309027,315.45361663107013 L47.0981860670655,204.6945076797002 A63.32872910523162 63.32872910523162 0.8152820433894097 0 0 1,184.7879523041429 Z" style="fill: rgb(31, 120, 180);"/><title>Soda Ash → Container glass melting
Soda Ash
13.6</title><text class="label" dy="0.35em" x="5" y="178.39268816643815"/></g><g class="link" style="opacity: 0.8;"><path d="M445.5,352.6601187731011 A231.3369070031718 231.3369070031718 0.18441656777544835 0 1 487.92094856322547,356.5828053220754 L627.0511859649669,382.53560912045225 A216.4921144295218 216.4921144295218 0.18441656777544835 0 0 666.75,386.2065785141083 L666.75,401.0513710877583 A231.3369070031718 231.3369070031718 0.18441656777544835 0 1 624.3290514367745,397.128684538784 L485.19881403503314,371.17588074040714 A216.4921144295218 216.4921144295218 0.18441656777544835 0 0 445.5,367.5049113467511 Z" style="fill: rgb(255, 127, 0);"/><title>Container glass forming → Food
Food
15.8</title><text class="label" dy="0.35em" x="449.5" y="360.0825150599261"/></g><g class="link" style="opacity: 0.8;"><path d="M1,154.32302174329658 A98.032584585693 98.032584585693 0.41117743832025666 0 0 40.18253635088979,146.1520890768859 L176.0032011596925,86.92996236978722 A115.70698687112983 115.70698687112983 0.41117743832025666 0 1 222.25,77.28588328370705 L222.25,94.96028556914388 A98.032584585693 98.032584585693 0.41117743832025666 0 0 183.06746364911018,103.13121823555458 L47.24679884030749,162.35334494265322 A115.70698687112983 115.70698687112983 0.41117743832025666 0 1 1,171.9974240287334 Z" style="fill: rgb(31, 120, 180);"/><title>Soda Ash → Flat glass melting
Soda Ash
18.8</title><text class="label" dy="0.35em" x="5" y="163.160222886015"/></g><g class="link" style="opacity: 0.8;"><path d="M667.75,27.188693048501868 A0 0 0 0 0 667.75,27.188693048501868 L889,27.188693048501868 A0 0 0 0 0 889,27.188693048501868 L889,46.39176277736825 A0 0 0 0 0 889,46.39176277736825 L667.75,46.39176277736825 A0 0 0 0 0 667.75,46.39176277736825 Z" style="fill: rgb(255, 255, 153);"/><title>Buildings → Buildings
Buildings
20.4</title><text class="label" dy="0.35em" x="671.75" y="36.79022791293506"/></g><g class="link" style="opacity: 0.8;"><path d="M223.25,471.8554887131852 A12.370851868166499 12.370851868166499 1.5769685642872273 0 1 210.87938377426136,459.4082814941202 L209.87938377426136,386.11849461699245 A12.370851868166499 12.370851868166499 1.5769685642872273 0 1 222.25,373.55102958080647 L222.25,354.0672393278908 A31.854642121082144 31.854642121082144 1.5769685642872273 0 0 190.39596465242775,386.11849461699245 L191.39596465242775,459.4082814941202 A31.854642121082144 31.854642121082144 1.5769685642872273 0 0 223.25,491.3392789661009 Z" style="fill: rgb(253, 191, 111);"/><title> → Container glass melting
Beverages
20.7</title><text class="label" dy="0.35em" x="227.25" y="481.59738383964304"/></g><g class="link" style="opacity: 0.8;"><path d="M222.25,471.8554887131852 A0 0 0 0 1 222.25,471.8554887131852 L445.5,471.85548871318525 A0 0 0 0 0 445.5,471.85548871318525 L445.5,491.33927896610095 A0 0 0 0 1 445.5,491.33927896610095 L222.25,491.3392789661009 A0 0 0 0 0 222.25,491.3392789661009 Z" style="fill: rgb(253, 191, 111);"/><title> → 
Beverages
20.7</title><text class="label" dy="0.35em" x="449.5" y="481.5973838396431"/></g><g class="link" style="opacity: 0.8;"><path d="M667.75,333.17632852018545 A27.731088628401587 27.731088628401587 1.5799539682430652 0 1 695.4799258387474,361.1613649657332 L694.4799258387474,470.0272623428571 A27.731088628401587 27.731088628401587 1.5799539682430652 0 1 666.75,497.8338757170728 L666.75,478.3500854641571 A8.247298375485942 8.247298375485942 1.5799539682430652 0 0 674.996952558798,469.84883927152504 L675.996952558798,360.9829418944011 A8.247298375485942 8.247298375485942 1.5799539682430652 0 0 667.75,352.66011877310115 Z" style="fill: rgb(253, 191, 111);"/><title>Beverages → 
Beverages
20.7</title><text class="label" dy="0.35em" x="671.75" y="342.9182236466433"/></g><g class="link" style="opacity: 0.8;"><path d="M444.5,471.85548871318525 A0 0 0 0 0 444.5,471.85548871318525 L667.75,471.8554887131852 A0 0 0 0 1 667.75,471.8554887131852 L667.75,491.3392789661009 A0 0 0 0 0 667.75,491.3392789661009 L444.5,491.33927896610095 A0 0 0 0 1 444.5,491.33927896610095 Z" style="fill: rgb(253, 191, 111);"/><title> → 
Beverages
20.7</title><text class="label" dy="0.35em" x="671.75" y="481.59738383964304"/></g><g class="link" style="opacity: 0.8;"><path d="M667.75,296.99214662191355 A50.097962179478614 50.097962179478614 0.8261589736547025 0 0 704.5887208130642,280.8458333478059 L825.5538301648756,149.59447928387365 A86.28214407775052 86.28214407775052 0.8261589736547025 0 1 889,121.78619192779203 L889,157.97037382606393 A50.097962179478614 50.097962179478614 0.8261589736547025 0 0 852.1612791869358,174.11668710017156 L731.1961698351244,305.3680411641039 A86.28214407775052 86.28214407775052 0.8261589736547025 0 1 667.75,333.1763285201855 Z" style="fill: rgb(253, 191, 111);"/><title>Beverages → Beverages
Beverages
38.4</title><text class="label" dy="0.35em" x="671.75" y="315.0842375710495"/></g><g class="link" style="opacity: 0.8;"><path d="M1,77.28588328370705 A84.50367647228276 84.50367647228276 0.9669633925996037 0 1 70.56049589382343,113.8082222554823 L182.53262102167838,276.1387648356355 A48.24957758544604 48.24957758544604 0.9669633925996037 0 0 222.25,296.99214662191355 L222.25,333.24624550875023 A84.50367647228276 84.50367647228276 0.9669633925996037 0 1 152.68950410617657,296.723906536975 L40.71737897832162,134.3933639568218 A48.24957758544604 48.24957758544604 0.9669633925996037 0 0 1,113.5399821705438 Z" style="fill: rgb(166, 206, 227);"/><title>Silica → Container glass melting
Silica
38.5</title><text class="label" dy="0.35em" x="5" y="95.41293272712542"/></g><g class="link" style="opacity: 0.8;"><path d="M1,27.188693048501865 A0 0 0 0 0 1,27.188693048501865 L222.25,27.188693048501865 A0 0 0 0 0 222.25,27.188693048501865 L222.25,77.28588328370705 A0 0 0 0 0 222.25,77.28588328370705 L1,77.28588328370705 A0 0 0 0 0 1,77.28588328370705 Z" style="fill: rgb(166, 206, 227);"/><title>Silica → Flat glass melting
Silica
53.2</title><text class="label" dy="0.35em" x="5" y="52.237288166104456"/></g><g class="link" style="opacity: 0.8;"><path d="M445.5,27.18869304850186 A0 0 0 0 0 445.5,27.18869304850186 L666.75,27.18869304850186 A0 0 0 0 0 666.75,27.18869304850186 L666.75,82.52266435176024 A0 0 0 0 0 666.75,82.52266435176024 L445.5,82.52266435176024 A0 0 0 0 0 445.5,82.52266435176024 Z" style="fill: rgb(255, 255, 153);"/><title>Flat glass forming → Buildings
Buildings
58.8</title><text class="label" dy="0.35em" x="449.5" y="54.85567870013105"/></g><g class="link" style="opacity: 0.8;"><path d="M445.5,296.99214662191355 A0 0 0 0 0 445.5,296.99214662191355 L666.75,296.99214662191355 A0 0 0 0 0 666.75,296.99214662191355 L666.75,352.6601187731011 A0 0 0 0 0 666.75,352.6601187731011 L445.5,352.6601187731011 A0 0 0 0 0 445.5,352.6601187731011 Z" style="fill: rgb(253, 191, 111);"/><title>Container glass forming → Beverages
Beverages
59.1</title><text class="label" dy="0.35em" x="449.5" y="324.8261326975073"/></g><g class="link" style="opacity: 0.8;"><path d="M223.25,27.18869304850186 A0 0 0 0 0 223.25,27.18869304850186 L444.5,27.18869304850186 A0 0 0 0 0 444.5,27.18869304850186 L444.5,105.62096987806724 A0 0 0 0 0 444.5,105.62096987806724 L223.25,105.62096987806724 A0 0 0 0 0 223.25,105.62096987806724 Z" style="fill: rgb(51, 160, 44);"/><title>Flat glass melting → Flat glass forming
Liquid glass
83.3</title><text class="label" dy="0.35em" x="227.25" y="66.40483146328455"/></g><g class="link" style="opacity: 0.8;"><path d="M223.25,296.99214662191355 A0 0 0 0 0 223.25,296.99214662191355 L444.5,296.99214662191355 A0 0 0 0 0 444.5,296.99214662191355 L444.5,379.46321647552475 A0 0 0 0 0 444.5,379.46321647552475 L223.25,379.46321647552475 A0 0 0 0 0 223.25,379.46321647552475 Z" style="fill: rgb(51, 160, 44);"/><title>Container glass melting → Container glass forming
Liquid glass
87.6</title><text class="label" dy="0.35em" x="227.25" y="338.22768154871915"/></g></g><g class="nodes"><g class="node" transform="translate(0,27.188693048501865)"><title>Silica</title><line x1="0" x2="0" y1="0" y2="86.35128912204192" style="display: inline; stroke: rgb(0, 0, 0);"/><rect class="node-body" width="1" height="86.35128912204192" style="fill: none;"/><text class="node-value" dy=".35em" text-anchor="middle" transform="translate(0.5,43.17564456102096) rotate(-90)" style="display: none;"/><text class="node-title" dy=".35em" text-anchor="end" transform="translate(-4,43.17564456102096)" style="display: inline;">Silica</text><rect class="node-click-target" x="-5" y="-5" width="10" height="91.35128912204192" style="fill: none; visibility: hidden; pointer-events: all;"/></g><g class="node" transform="translate(0,154.32302174329658)"><title>Soda Ash</title><line x1="0" x2="0" y1="0" y2="30.46493056084634" style="display: inline; stroke: rgb(0, 0, 0);"/><rect class="node-body" width="1" height="30.46493056084634" style="fill: none;"/><text class="node-value" dy=".35em" text-anchor="middle" transform="translate(0.5,15.23246528042317) rotate(-90)" style="display: none;"/><text class="node-title" dy=".35em" text-anchor="end" transform="translate(-4,15.23246528042317)" style="display: inline;">Soda Ash</text><rect class="node-click-target" x="-5" y="-5" width="10" height="35.46493056084634" style="fill: none; visibility: hidden; pointer-events: all;"/></g><g class="node" transform="translate(0,225.5709918768957)"><title>Limestone</title><line x1="0" x2="0" y1="0" y2="19.12724555962106" style="display: inline; stroke: rgb(0, 0, 0);"/><rect class="node-body" width="1" height="19.12724555962106" style="fill: none;"/><text class="node-value" dy=".35em" text-anchor="middle" transform="translate(0.5,9.56362277981053) rotate(-90)" style="display: none;"/><text class="node-title" dy=".35em" text-anchor="end" transform="translate(-4,9.56362277981053)" style="display: inline;">Limestone</text><rect class="node-click-target" x="-5" y="-5" width="10" height="24.12724555962106" style="fill: none; visibility: hidden; pointer-events: all;"/></g><g class="node" transform="translate(222.25,27.188693048501865)"><title>Flat glass melting</title><line x1="0" x2="0" y1="-5" y2="90.63321406096689" style="display: inline; stroke: rgb(0, 0, 0);"/><rect class="node-body" width="1" height="90.63321406096689" style="fill: none;"/><text class="node-value" dy=".35em" text-anchor="middle" transform="translate(0.5,45.316607030483446) rotate(-90)" style="display: none;"/><text class="node-title" dy=".35em" text-anchor="start" transform="translate(-4,-10)" style="display: inline;">Flat glass melting</text><rect class="node-click-target" x="-5" y="-5" width="10" height="95.63321406096689" style="fill: none; visibility: hidden; pointer-events: all;"/></g><g class="node" transform="translate(222.25,232.933395912082)"><title/><line x1="0" x2="0" y1="-5" y2="11.764841524434814" style="display: none; stroke: rgb(0, 0, 0);"/><rect class="node-body" width="1" height="11.764841524434814" style="fill: none;"/><text class="node-value" dy=".35em" text-anchor="middle" transform="translate(0.5,5.882420762217407) rotate(-90)" style="display: none;"/><text class="node-title" dy=".35em" text-anchor="start" transform="translate(-4,-10)" style="display: none;"/><rect class="node-click-target" x="-5" y="-5" width="10" height="16.764841524434814" style="fill: none; visibility: hidden; pointer-events: all;"/></g><g class="node" transform="translate(222.25,296.99214662191355)"><title>Container glass melting</title><line x1="0" x2="0" y1="-5" y2="91.30058669522589" style="display: inline; stroke: rgb(0, 0, 0);"/><rect class="node-body" width="1" height="91.30058669522589" style="fill: none;"/><text class="node-value" dy=".35em" text-anchor="middle" transform="translate(0.5,45.650293347612944) rotate(-90)" style="display: none;"/><text class="node-title" dy=".35em" text-anchor="start" transform="translate(-4,-10)" style="display: inline;">Container glass melting</text><rect class="node-click-target" x="-5" y="-5" width="10" height="96.30058669522589" style="fill: none; visibility: hidden; pointer-events: all;"/></g><g class="node" transform="translate(222.25,425.95055752248174)"><title/><line x1="0" x2="0" y1="-5" y2="8.247106985361143" style="display: none; stroke: rgb(0, 0, 0);"/><rect class="node-body" width="1" height="8.247106985361143" style="fill: none;"/><text class="node-value" dy=".35em" text-anchor="middle" transform="translate(0.5,4.123553492680571) rotate(-90)" style="display: none;"/><text class="node-title" dy=".35em" text-anchor="start" transform="translate(-4,-10)" style="display: none;"/><rect class="node-click-target" x="-5" y="-5" width="10" height="13.247106985361143" style="fill: none; visibility: hidden; pointer-events: all;"/></g><g class="node" transform="translate(222.25,471.8554887131852)"><title/><line x1="0" x2="0" y1="-5" y2="25.97838700388752" style="display: none; stroke: rgb(0, 0, 0);"/><rect class="node-body" width="1" height="25.97838700388752" style="fill: none;"/><text class="node-value" dy=".35em" text-anchor="middle" transform="translate(0.5,12.98919350194376) rotate(-90)" style="display: none;"/><text class="node-title" dy=".35em" text-anchor="start" transform="translate(-4,-10)" style="display: none;"/><rect class="node-click-target" x="-5" y="-5" width="10" height="30.97838700388752" style="fill: none; visibility: hidden; pointer-events: all;"/></g><g class="node" transform="translate(444.5,27.188693048501865)"><title>Flat glass forming</title><line x1="0" x2="0" y1="-5" y2="78.43227682956538" style="display: inline; stroke: rgb(0, 0, 0);"/><rect class="node-body" width="1" height="78.43227682956538" style="fill: none;"/><text class="node-value" dy=".35em" text-anchor="middle" transform="translate(0.5,39.21613841478269) rotate(-90)" style="display: none;"/><text class="node-title" dy=".35em" text-anchor="start" transform="translate(-4,-10)" style="display: inline;">Flat glass forming</text><rect class="node-click-target" x="-5" y="-5" width="10" height="83.43227682956538" style="fill: none; visibility: hidden; pointer-events: all;"/></g><g class="node" transform="translate(444.5,232.933395912082)"><title/><line x1="0" x2="0" y1="-5" y2="11.764841524434814" style="display: none; stroke: rgb(0, 0, 0);"/><rect class="node-body" width="1" height="11.764841524434814" style="fill: none;"/><text class="node-value" dy=".35em" text-anchor="middle" transform="translate(0.5,5.882420762217407) rotate(-90)" style="display: none;"/><text class="node-title" dy=".35em" text-anchor="start" transform="translate(-4,-10)" style="display: none;"/><rect class="node-click-target" x="-5" y="-5" width="10" height="16.764841524434814" style="fill: none; visibility: hidden; pointer-events: all;"/></g><g class="node" transform="translate(444.5,296.99214662191355)"><title>Container glass forming</title><line x1="0" x2="0" y1="-5" y2="82.4710698536112" style="display: inline; stroke: rgb(0, 0, 0);"/><rect class="node-body" width="1" height="82.4710698536112" style="fill: none;"/><text class="node-value" dy=".35em" text-anchor="middle" transform="translate(0.5,41.2355349268056) rotate(-90)" style="display: none;"/><text class="node-title" dy=".35em" text-anchor="start" transform="translate(-4,-10)" style="display: inline;">Container glass forming</text><rect class="node-click-target" x="-5" y="-5" width="10" height="87.4710698536112" style="fill: none; visibility: hidden; pointer-events: all;"/></g><g class="node" transform="translate(444.5,421.53579910167446)"><title/><line x1="0" x2="0" y1="-5" y2="8.247106985361143" style="display: none; stroke: rgb(0, 0, 0);"/><rect class="node-body" width="1" height="8.247106985361143" style="fill: none;"/><text class="node-value" dy=".35em" text-anchor="middle" transform="translate(0.5,4.123553492680571) rotate(-90)" style="display: none;"/><text class="node-title" dy=".35em" text-anchor="start" transform="translate(-4,-10)" style="display: none;"/><rect class="node-click-target" x="-5" y="-5" width="10" height="13.247106985361143" style="fill: none; visibility: hidden; pointer-events: all;"/></g><g class="node" transform="translate(444.5,471.85548871318525)"><title/><line x1="0" x2="0" y1="-5" y2="25.97838700388752" style="display: none; stroke: rgb(0, 0, 0);"/><rect class="node-body" width="1" height="25.97838700388752" style="fill: none;"/><text class="node-value" dy=".35em" text-anchor="middle" transform="translate(0.5,12.98919350194376) rotate(-90)" style="display: none;"/><text class="node-title" dy=".35em" text-anchor="start" transform="translate(-4,-10)" style="display: none;"/><rect class="node-click-target" x="-5" y="-5" width="10" height="30.97838700388752" style="fill: none; visibility: hidden; pointer-events: all;"/></g><g class="node" transform="translate(444.5,533.4543188904759)"><title>Process emissions</title><line x1="0" x2="0" y1="0" y2="21.03045407301613" style="display: inline; stroke: rgb(0, 0, 0);"/><rect class="node-body" width="1" height="21.03045407301613" style="fill: none;"/><text class="node-value" dy=".35em" text-anchor="middle" transform="translate(0.5,10.515227036508065) rotate(-90)" style="display: none;"/><text class="node-title" dy=".35em" text-anchor="start" transform="translate(5,10.515227036508065)" style="display: inline;">Process emissions</text><rect class="node-click-target" x="-5" y="-5" width="10" height="26.03045407301613" style="fill: none; visibility: hidden; pointer-events: all;"/></g><g class="node" transform="translate(666.75,27.188693048501865)"><title>Buildings</title><line x1="0" x2="0" y1="-5" y2="55.33397130325838" style="display: inline; stroke: rgb(0, 0, 0);"/><rect class="node-body" width="1" height="55.33397130325838" style="fill: none;"/><text class="node-value" dy=".35em" text-anchor="middle" transform="translate(0.5,27.66698565162919) rotate(-90)" style="display: none;"/><text class="node-title" dy=".35em" text-anchor="start" transform="translate(-4,-10)" style="display: inline;">Buildings</text><rect class="node-click-target" x="-5" y="-5" width="10" height="60.33397130325838" style="fill: none; visibility: hidden; pointer-events: all;"/></g><g class="node" transform="translate(666.75,157.94371889320243)"><title>Automotive</title><line x1="0" x2="0" y1="-5" y2="4.000046118307836" style="display: inline; stroke: rgb(0, 0, 0);"/><rect class="node-body" width="1" height="4.000046118307836" style="fill: none;"/><text class="node-value" dy=".35em" text-anchor="middle" transform="translate(0.5,2.000023059153918) rotate(-90)" style="display: none;"/><text class="node-title" dy=".35em" text-anchor="start" transform="translate(-4,-10)" style="display: inline;">Automotive</text><rect class="node-click-target" x="-5" y="-5" width="10" height="9.000046118307836" style="fill: none; visibility: hidden; pointer-events: all;"/></g><g class="node" transform="translate(666.75,237.36481955295244)"><title>Other FG</title><line x1="0" x2="0" y1="0" y2="7.333417883564351" style="display: inline; stroke: rgb(0, 0, 0);"/><rect class="node-body" width="1" height="7.333417883564351" style="fill: none;"/><text class="node-value" dy=".35em" text-anchor="middle" transform="translate(0.5,3.6667089417821757) rotate(-90)" style="display: none;"/><text class="node-title" dy=".35em" text-anchor="start" transform="translate(5,3.6667089417821757)" style="display: inline;">Other FG</text><rect class="node-click-target" x="-5" y="-5" width="10" height="12.333417883564351" style="fill: none; visibility: hidden; pointer-events: all;"/></g><g class="node" transform="translate(666.75,296.99214662191355)"><title>Beverages</title><line x1="0" x2="0" y1="-5" y2="55.66797215118754" style="display: inline; stroke: rgb(0, 0, 0);"/><rect class="node-body" width="1" height="55.66797215118754" style="fill: none;"/><text class="node-value" dy=".35em" text-anchor="middle" transform="translate(0.5,27.83398607559377) rotate(-90)" style="display: none;"/><text class="node-title" dy=".35em" text-anchor="start" transform="translate(-4,-10)" style="display: inline;">Beverages</text><rect class="node-click-target" x="-5" y="-5" width="10" height="60.66797215118754" style="fill: none; visibility: hidden; pointer-events: all;"/></g><g class="node" transform="translate(666.75,386.2065785141083)"><title>Food</title><line x1="0" x2="0" y1="-5" y2="14.844792573650011" style="display: inline; stroke: rgb(0, 0, 0);"/><rect class="node-body" width="1" height="14.844792573650011" style="fill: none;"/><text class="node-value" dy=".35em" text-anchor="middle" transform="translate(0.5,7.4223962868250055) rotate(-90)" style="display: none;"/><text class="node-title" dy=".35em" text-anchor="start" transform="translate(-4,-10)" style="display: inline;">Food</text><rect class="node-click-target" x="-5" y="-5" width="10" height="19.84479257365001" style="fill: none; visibility: hidden; pointer-events: all;"/></g><g class="node" transform="translate(666.75,434.5978308287655)"><title>Other CG</title><line x1="0" x2="0" y1="-5" y2="3.7111981434125028" style="display: inline; stroke: rgb(0, 0, 0);"/><rect class="node-body" width="1" height="3.7111981434125028" style="fill: none;"/><text class="node-value" dy=".35em" text-anchor="middle" transform="translate(0.5,1.8555990717062514) rotate(-90)" style="display: none;"/><text class="node-title" dy=".35em" text-anchor="start" transform="translate(-4,-10)" style="display: inline;">Other CG</text><rect class="node-click-target" x="-5" y="-5" width="10" height="8.711198143412503" style="fill: none; visibility: hidden; pointer-events: all;"/></g><g class="node" transform="translate(666.75,471.8554887131852)"><title/><line x1="0" x2="0" y1="-5" y2="25.97838700388752" style="display: none; stroke: rgb(0, 0, 0);"/><rect class="node-body" width="1" height="25.97838700388752" style="fill: none;"/><text class="node-value" dy=".35em" text-anchor="middle" transform="translate(0.5,12.98919350194376) rotate(-90)" style="display: none;"/><text class="node-title" dy=".35em" text-anchor="start" transform="translate(-4,-10)" style="display: none;"/><rect class="node-click-target" x="-5" y="-5" width="10" height="30.97838700388752" style="fill: none; visibility: hidden; pointer-events: all;"/></g><g class="node" transform="translate(889,27.188693048501865)"><title>Buildings</title><line x1="0" x2="0" y1="0" y2="19.203069728866385" style="display: inline; stroke: rgb(0, 0, 0);"/><rect class="node-body" width="1" height="19.203069728866385" style="fill: none;"/><text class="node-value" dy=".35em" text-anchor="middle" transform="translate(0.5,9.601534864433193) rotate(-90)" style="display: none;"/><text class="node-title" dy=".35em" text-anchor="start" transform="translate(5,9.601534864433193)" style="display: inline;">Buildings</text><rect class="node-click-target" x="-5" y="-5" width="10" height="24.203069728866385" style="fill: none; visibility: hidden; pointer-events: all;"/></g><g class="node" transform="translate(889,83.72499759954934)"><title>Automotive</title><line x1="0" x2="0" y1="0" y2="1" style="display: inline; stroke: rgb(0, 0, 0);"/><rect class="node-body" width="1" height="1" style="fill: none;"/><text class="node-value" dy=".35em" text-anchor="middle" transform="translate(0.5,0.3639797530307973) rotate(0)" style="display: none;"/><text class="node-title" dy=".35em" text-anchor="start" transform="translate(5,0.3639797530307973)" style="display: inline;">Automotive</text><rect class="node-click-target" x="-5" y="-5" width="10" height="6" style="fill: none; visibility: hidden; pointer-events: all;"/></g><g class="node" transform="translate(889,121.78619192779203)"><title>Beverages</title><line x1="0" x2="0" y1="0" y2="36.1841818982719" style="display: inline; stroke: rgb(0, 0, 0);"/><rect class="node-body" width="1" height="36.1841818982719" style="fill: none;"/><text class="node-value" dy=".35em" text-anchor="middle" transform="translate(0.5,18.09209094913595) rotate(-90)" style="display: none;"/><text class="node-title" dy=".35em" text-anchor="start" transform="translate(5,18.09209094913595)" style="display: inline;">Beverages</text><rect class="node-click-target" x="-5" y="-5" width="10" height="41.1841818982719" style="fill: none; visibility: hidden; pointer-events: all;"/></g><g class="node" transform="translate(889,195.30360864824505)"><title>Food</title><line x1="0" x2="0" y1="0" y2="9.649115172872513" style="display: inline; stroke: rgb(0, 0, 0);"/><rect class="node-body" width="1" height="9.649115172872513" style="fill: none;"/><text class="node-value" dy=".35em" text-anchor="middle" transform="translate(0.5,4.824557586436256) rotate(-90)" style="display: none;"/><text class="node-title" dy=".35em" text-anchor="start" transform="translate(5,4.824557586436256)" style="display: inline;">Food</text><rect class="node-click-target" x="-5" y="-5" width="10" height="14.649115172872513" style="fill: none; visibility: hidden; pointer-events: all;"/></g><g class="node" transform="translate(889,242.28595864329867)"><title>Other CG</title><line x1="0" x2="0" y1="0" y2="2.412278793218121" style="display: inline; stroke: rgb(0, 0, 0);"/><rect class="node-body" width="1" height="2.412278793218121" style="fill: none;"/><text class="node-value" dy=".35em" text-anchor="middle" transform="translate(0.5,1.2061393966090606) rotate(-90)" style="display: none;"/><text class="node-title" dy=".35em" text-anchor="start" transform="translate(5,1.2061393966090606)" style="display: inline;">Other CG</text><rect class="node-click-target" x="-5" y="-5" width="10" height="7.412278793218121" style="fill: none; visibility: hidden; pointer-events: all;"/></g></g><g class="slice-titles"/></g></svg>