<?xml version="1.0" standalone="no"?><!DOCTYPE svg PUBLIC "-//W3C//DTD SVG 1.1//EN" "http://www.w3.org/Graphics/SVG/1.1/DTD/svg11.dtd"><svg xmlns="http://www.w3.org/2000/svg" width="1150" height="600" viewBox="0 0 1150 600"><g class="sankey" transform="translate(130,25)"><g class="groups"><g class="group" transform="translate(0,99.45556824800695)" style="display: inline;"><rect x="-10" y="-20" width="21" height="443.8172726684382" style="fill: rgb(238, 238, 238); stroke: rgb(187, 187, 187); stroke-width: 0.5;"/><text x="-10" y="-25" style="fill: rgb(153, 153, 153);">Raw material extraction</text></g><g class="group" transform="translate(222.25,241.0965325623887)" style="display: none;"><rect x="-10" y="-20" width="21" height="43.35009620057693" style="fill: rgb(238, 238, 238); stroke: rgb(187, 187, 187); stroke-width: 0.5;"/><text x="-10" y="-25" style="fill: rgb(153, 153, 153);"/></g><g class="group" transform="translate(222.25,435.64026021255404)" style="display: none;"><rect x="-10" y="-20" width="21" height="39.35836419065663" style="fill: rgb(238, 238, 238); stroke: rgb(187, 187, 187); stroke-width: 0.5;"/><text x="-10" y="-25" style="fill: rgb(153, 153, 153);"/></g><g class="group" transform="translate(222.25,483.79399371587675)" style="display: none;"><rect x="-10" y="-20" width="21" height="59.478847200568396" style="fill: rgb(238, 238, 238); stroke: rgb(187, 187, 187); stroke-width: 0.5;"/><text x="-10" y="-25" style="fill: rgb(153, 153, 153);"/></g><g class="group" transform="translate(444.5,233.21763004340906)" style="display: none;"><rect x="-10" y="-20" width="21" height="43.35009620057693" style="fill: rgb(238, 238, 238); stroke: rgb(187, 187, 187); stroke-width: 0.5;"/><text x="-10" y="-25" style="fill: rgb(153, 153, 153);"/></g><g class="group" transform="translate(444.5,429.6742090669975)" style="display: none;"><rect x="-10" y="-20" width="21" height="39.35836419065663" style="fill: rgb(238, 238, 238); stroke: rgb(187, 187, 187); stroke-width: 0.5;"/><text x="-10" y="-25" style="fill: rgb(153, 153, 153);"/></g><g class="group" transform="translate(444.5,483.79399371587675)" style="display: none;"><rect x="-10" y="-20" width="21" height="59.478847200568396" style="fill: rgb(238, 238, 238); stroke: rgb(187, 187, 187); stroke-width: 0.5;"/><text x="-10" y="-25" style="fill: rgb(153, 153, 153);"/></g><g class="group" transform="translate(666.75,99.45556824800695)" style="display: inline;"><rect x="-10" y="-20" width="21" height="180.47141267505506" style="fill: rgb(238, 238, 238); stroke: rgb(187, 187, 187); stroke-width: 0.5;"/><text x="-10" y="-25" style="fill: rgb(153, 153, 153);">Use of flat glass</text></g><g class="group" transform="translate(666.75,287.33741469228823)" style="display: inline;"><rect x="-10" y="-20" width="21" height="189.04614525436222" style="fill: rgb(238, 238, 238); stroke: rgb(187, 187, 187); stroke-width: 0.5;"/><text x="-10" y="-25" style="fill: rgb(153, 153, 153);">Use of containers</text></g><g class="group" transform="translate(666.75,483.7939937158767)" style="display: none;"><rect x="-10" y="-20" width="21" height="59.47884720056834" style="fill: rgb(238, 238, 238); stroke: rgb(187, 187, 187); stroke-width: 0.5;"/><text x="-10" y="-25" style="fill: rgb(153, 153, 153);"/></g><g class="group" transform="translate(889,99.45556824800695)" style="display: inline;"><rect x="-10" y="-20" width="21" height="443.8172726684382" style="fill: rgb(238, 238, 238); stroke: rgb(187, 187, 187); stroke-width: 0.5;"/><text x="-10" y="-25" style="fill: rgb(153, 153, 153);">Disposal</text></g></g><g class="links"><g class="link" style="opacity: 0.8;"><path d="M667.75,199.06897871965057 A999 999 0.0032348220434801345 0 0 670.9815815855118,199.06375191941873 L885.7619487816844,198.36897322969878 A1001 1001 0.0032348220434801345 0 1 889,198.3637359654024 L889,200.3637359654024 A999 999 0.0032348220434801345 0 0 885.7684184144882,200.36896276563425 L670.9880512183156,201.0637414553542 A1001 1001 0.0032348220434801345 0 1 667.75,201.06897871965057 Z" style="fill: rgb(106, 61, 154);"/><title>Automotive → Automotive
Automotive
773m</title><text class="label" dy="0.35em" x="671.75" y="200.06897871965057"/></g><g class="link" style="opacity: 0.8;"><path d="M223.25,511.53586973643087 A23.418605695612516 23.418605695612516 1.5765228694554698 0 1 199.831778289912,487.98315712922187 L198.831778289912,411.3137211591499 A23.418605695612516 23.418605695612516 1.5765228694554698 0 1 222.25,387.7495555292171 L222.25,385.7495555292171 A25.418605695612516 25.418605695612516 1.5765228694554698 0 0 196.83181108311322,411.3137211591499 L197.83181108311322,487.98315712922187 A25.418605695612516 25.418605695612516 1.5765228694554698 0 0 223.25,513.5358697364309 Z" style="fill: rgb(202, 178, 214);"/><title> → Container glass melting
Other CG
1.38</title><text class="label" dy="0.35em" x="227.25" y="512.5358697364309"/></g><g class="link" style="opacity: 0.8;"><path d="M222.25,511.53586973643087 A0 0 0 0 0 222.25,511.53586973643087 L445.5,511.53586973643087 A0 0 0 0 0 445.5,511.53586973643087 L445.5,513.5358697364309 A0 0 0 0 0 445.5,513.5358697364309 L222.25,513.5358697364309 A0 0 0 0 0 222.25,513.5358697364309 Z" style="fill: rgb(202, 178, 214);"/><title> → 
Other CG
1.38</title><text class="label" dy="0.35em" x="449.5" y="512.5358697364309"/></g><g class="link" style="opacity: 0.8;"><path d="M667.75,444.6465887666363 A6.73697118001421 6.73697118001421 1.607262612071277 0 1 674.482492298054,451.6291778144572 L673.482492298054,478.62129225553076 A6.73697118001421 6.73697118001421 1.607262612071277 0 1 666.75,485.5309648958909 L666.75,483.5309648958909 A4.73697118001421 4.73697118001421 1.607262612071277 0 0 671.4838219406606,478.54837584807 L672.4838219406606,451.55626140699644 A4.73697118001421 4.73697118001421 1.607262612071277 0 0 667.75,446.6465887666363 Z" style="fill: rgb(202, 178, 214);"/><title>Other CG → 
Other CG
1.38</title><text class="label" dy="0.35em" x="671.75" y="445.6465887666363"/></g><g class="link" style="opacity: 0.8;"><path d="M444.5,511.53586973643087 A0 0 0 0 0 444.5,511.53586973643087 L667.75,511.53586973643087 A0 0 0 0 0 667.75,511.53586973643087 L667.75,513.5358697364309 A0 0 0 0 0 667.75,513.5358697364309 L444.5,513.5358697364309 A0 0 0 0 0 444.5,513.5358697364309 Z" style="fill: rgb(202, 178, 214);"/><title> → 
Other CG
1.38</title><text class="label" dy="0.35em" x="671.75" y="512.5358697364309"/></g><g class="link" style="opacity: 0.8;"><path d="M667.75,442.172296060855 A119.03081197244236 119.03081197244236 0.3676365344880901 0 1 710.5309713186679,450.126005569062 L847.2028518758754,502.7647193315938 A116.29349044667529 116.29349044667529 0.3676365344880901 0 0 889,510.53551939067813 L889,513.2728409164451 A119.03081197244236 119.03081197244236 0.3676365344880901 0 1 846.2190286813321,505.31913140823815 L709.5471481241246,452.6804176457063 A116.29349044667529 116.29349044667529 0.3676365344880901 0 0 667.75,444.909617586622 Z" style="fill: rgb(202, 178, 214);"/><title>Other CG → Other CG
Other CG
2.56</title><text class="label" dy="0.35em" x="671.75" y="443.5409568237385"/></g><g class="link" style="opacity: 0.8;"><path d="M445.5,371.34316053232277 A116.39827833128764 116.39827833128764 0.3801127993177458 0 1 488.686696801082,379.6513448776243 L625.1257883077403,434.16469998190496 A112.18701444549215 112.18701444549215 0.3801127993177458 0 0 666.75,442.172296060855 L666.75,446.38355994665045 A116.39827833128764 116.39827833128764 0.3801127993177458 0 1 623.563303198918,438.0753756013489 L487.1242116922597,383.56202049706826 A112.18701444549215 112.18701444549215 0.3801127993177458 0 0 445.5,375.55442441811823 Z" style="fill: rgb(202, 178, 214);"/><title>Container glass forming → Other CG
Other CG
3.94</title><text class="label" dy="0.35em" x="449.5" y="373.4487924752205"/></g><g class="link" style="opacity: 0.8;"><path d="M445.5,162.2455207113871 A204.1561211662844 204.1561211662844 0.20529917064121284 0 1 487.11927851684226,166.5327912145426 L626.0560489501976,195.46400348554573 A199.61708845808826 199.61708845808826 0.20529917064121284 0 0 666.75,199.65595448061333 L666.75,204.19498718880948 A204.1561211662844 204.1561211662844 0.20529917064121284 0 1 625.1307214831578,199.90771668565395 L486.1939510498025,170.97650441465083 A199.61708845808826 199.61708845808826 0.20529917064121284 0 0 445.5,166.78455341958323 Z" style="fill: rgb(106, 61, 154);"/><title>Flat glass forming → Automotive
Automotive
4.25</title><text class="label" dy="0.35em" x="449.5" y="164.51503706548516"/></g><g class="link" style="opacity: 0.8;"><path d="M223.25,505.90312911630303 A21.47072097555568 21.47072097555568 1.5765228694554698 0 1 201.77963107128105,484.30945581313205 L200.77963107128105,407.64001984306003 A21.47072097555568 21.47072097555568 1.5765228694554698 0 1 222.25,386.0125843492029 L222.25,380.1168149090892 A27.366490415669354 27.366490415669354 1.5765228694554698 0 0 194.88395830174417,407.64001984306003 L195.88395830174417,484.30945581313205 A27.366490415669354 27.366490415669354 1.5765228694554698 0 0 223.25,511.7988985564167 Z" style="fill: rgb(255, 127, 0);"/><title> → Container glass melting
Food
5.52</title><text class="label" dy="0.35em" x="227.25" y="508.85101383635987"/></g><g class="link" style="opacity: 0.8;"><path d="M222.25,505.90312911630303 A0 0 0 0 0 222.25,505.90312911630303 L445.5,505.90312911630303 A0 0 0 0 0 445.5,505.90312911630303 L445.5,511.7988985564167 A0 0 0 0 0 445.5,511.7988985564167 L222.25,511.7988985564167 A0 0 0 0 0 222.25,511.7988985564167 Z" style="fill: rgb(255, 127, 0);"/><title> → 
Food
5.52</title><text class="label" dy="0.35em" x="449.5" y="508.85101383635987"/></g><g class="link" style="opacity: 0.8;"><path d="M667.75,398.8660928515151 A11.632740620127889 11.632740620127889 1.585281321536243 0 1 679.3815202793061,410.6673277661016 L678.3815202793061,479.4478678044253 A11.632740620127889 11.632740620127889 1.585281321536243 0 1 666.75,491.1637055160188 L666.75,485.26793607590514 A5.73697118001421 5.73697118001421 1.585281321536243 0 0 672.4863693390247,479.3624706014323 L673.4863693390247,410.5819305631086 A5.73697118001421 5.73697118001421 1.585281321536243 0 0 667.75,404.76186229162874 Z" style="fill: rgb(255, 127, 0);"/><title>Food → 
Food
5.52</title><text class="label" dy="0.35em" x="671.75" y="401.8139775715719"/></g><g class="link" style="opacity: 0.8;"><path d="M444.5,505.90312911630303 A0 0 0 0 0 444.5,505.90312911630303 L667.75,505.903129116303 A0 0 0 0 1 667.75,505.903129116303 L667.75,511.79889855641665 A0 0 0 0 0 667.75,511.79889855641665 L444.5,511.7988985564167 A0 0 0 0 1 444.5,511.7988985564167 Z" style="fill: rgb(255, 127, 0);"/><title> → 
Food
5.52</title><text class="label" dy="0.35em" x="671.75" y="508.8510138363598"/></g><g class="link" style="opacity: 0.8;"><path d="M445.5,166.78455341958323 A113.52142998668222 113.52142998668222 0.4001449685095899 0 1 489.7224845480641,175.75223203111187 L625.769194639842,233.29510787935556 A105.19987002165593 105.19987002165593 0.4001449685095899 0 0 666.75,241.60542095803572 L666.75,249.926980923062 A113.52142998668222 113.52142998668222 0.4001449685095899 0 1 622.5275154519359,240.95930231153335 L486.48080536015806,183.41642646328967 A105.19987002165593 105.19987002165593 0.4001449685095899 0 0 445.5,175.1061133846095 Z" style="fill: rgb(177, 89, 40);"/><title>Flat glass forming → Other FG
Other FG
7.79</title><text class="label" dy="0.35em" x="449.5" y="170.94533340209637"/></g><g class="link" style="opacity: 0.8;"><path d="M1,339.81233283120605 A995.4437343111863 995.4437343111863 0.02811381508091282 0 0 28.982034625753435,339.41896604801724 L194.01181109877314,334.7781266792317 A1004.5562656888137 1004.5562656888137 0.02811381508091282 0 1 222.25,334.38115892189313 L222.25,343.49369029952067 A995.4437343111863 995.4437343111863 0.02811381508091282 0 0 194.26796537424656,343.8870570827095 L29.238188901226856,348.527896451495 A1004.5562656888137 1004.5562656888137 0.02811381508091282 0 1 1,348.9248642088336 Z" style="fill: rgb(31, 120, 180);"/><title>Limestone → Container glass melting
Limestone
8.53</title><text class="label" dy="0.35em" x="5" y="344.3685985200198"/></g><g class="link" style="opacity: 0.8;"><path d="M223.25,435.64026021255404 A5 5 1.585607403778402 0 1 218.2505484099781,430.5662075351704 L217.2505484099781,402.0575459621213 A5 5 1.585607403778402 0 1 222.25,396.84489089988796 L222.25,387.4865267092313 A14.358364190656637 14.358364190656637 1.585607403778402 0 0 207.89321066338167,402.0575459621213 L208.89321066338167,430.5662075351704 A14.358364190656637 14.358364190656637 1.585607403778402 0 0 223.25,444.99862440321067 Z" style="fill: rgb(227, 26, 28);"/><title> → Container glass melting
Forming scrap
8.76</title><text class="label" dy="0.35em" x="227.25" y="440.31944230788235"/></g><g class="link" style="opacity: 0.8;"><path d="M445.5,375.55442441811823 A14.358364190656637 14.358364190656637 1.5995559190929531 0 1 459.8524265968389,390.32567238646993 L458.8524265968389,424.53043092757554 A14.358364190656637 14.358364190656637 1.5995559190929531 0 1 444.5,439.0325732576541 L444.5,429.6742090669975 A5 5 1.5995559190929531 0 0 449.49793235714776,424.2613252893024 L450.49793235714776,390.0565667481968 A5 5 1.5995559190929531 0 0 445.5,384.91278860877486 Z" style="fill: rgb(227, 26, 28);"/><title>Container glass forming → 
Forming scrap
8.76</title><text class="label" dy="0.35em" x="449.5" y="380.23360651344655"/></g><g class="link" style="opacity: 0.8;"><path d="M222.25,435.64026021255404 A995.3208179046717 995.3208179046717 0.031027686770501273 0 0 253.12754762580101,435.1611923400374 L414.3321305696125,430.1577813078971 A1004.6791820953283 1004.6791820953283 0.031027686770501273 0 1 445.5,429.6742090669975 L445.5,439.0325732576541 A995.3208179046717 995.3208179046717 0.031027686770501273 0 0 414.622452374199,439.51164113017074 L253.4178694303875,444.51505216231106 A1004.6791820953283 1004.6791820953283 0.031027686770501273 0 1 222.25,444.99862440321067 Z" style="fill: rgb(227, 26, 28);"/><title> → 
Forming scrap
8.76</title><text class="label" dy="0.35em" x="449.5" y="434.3533911623258"/></g><g class="link" style="opacity: 0.8;"><path d="M223.25,293.24199807563167 A62.56318808910511 62.56318808910511 1.090797714413573 0 0 278.74327027669545,259.5691103980898 L380.11969860920084,64.84252545437279 A72.58243900679504 72.58243900679504 1.090797714413573 0 1 444.5,25.777055955649203 L444.5,35.796306873339134 A62.56318808910511 62.56318808910511 1.090797714413573 0 0 389.00672972330455,69.469194550881 L287.63030139079916,264.19577949459796 A72.58243900679504 72.58243900679504 1.090797714413573 0 1 223.25,303.26124899332154 Z" style="fill: rgb(251, 154, 153);"/><title>Container glass melting → Process emissions
Emission
9.38</title><text class="label" dy="0.35em" x="227.25" y="298.2516235344766"/></g><g class="link" style="opacity: 0.8;"><path d="M667.75,387.9168067484468 A298.1493504592993 298.1493504592993 0.14017022584221905 0 1 709.4049445486601,390.8409875931786 L848.8747985306661,410.51955714541214 A287.200064356231 287.200064356231 0.14017022584221905 0 0 889,413.33634988872177 L889,424.28563599179006 A298.1493504592993 298.1493504592993 0.14017022584221905 0 1 847.3450554513399,421.3614551470582 L707.8752014693339,401.6828855948247 A287.200064356231 287.200064356231 0.14017022584221905 0 0 667.75,398.8660928515151 Z" style="fill: rgb(255, 127, 0);"/><title>Food → Food
Food
10.3</title><text class="label" dy="0.35em" x="671.75" y="393.39144979998093"/></g><g class="link" style="opacity: 0.8;"><path d="M1,327.22031614988583 A62.302340105344584 62.302340105344584 0.845680148166323 0 0 47.62846533403853,306.23828343926425 L152.80232312555174,187.55340689100845 A92.79209069313808 92.79209069313808 0.845680148166323 0 1 222.25,156.30310908649028 L222.25,168.8951257678105 A80.20007401181786 80.20007401181786 0.845680148166323 0 0 162.22647015305975,195.90471438783547 L57.052612361546515,314.5895909360912 A74.8943567866648 74.8943567866648 0.845680148166323 0 1 1,339.8123328312061 Z" style="fill: rgb(31, 120, 180);"/><title>Limestone → Flat glass melting
Limestone
11.8</title><text class="label" dy="0.35em" x="5" y="333.51632449054597"/></g><g class="link" style="opacity: 0.8;"><path d="M667.75,99.45556824800695 A0 0 0 0 0 667.75,99.45556824800695 L889,99.45556824800695 A0 0 0 0 0 889,99.45556824800695 L889,112.7008283274771 A0 0 0 0 0 889,112.7008283274771 L667.75,112.7008283274771 A0 0 0 0 0 667.75,112.7008283274771 Z" style="fill: rgb(255, 255, 153);"/><title>Buildings → Buildings
Buildings
12.4</title><text class="label" dy="0.35em" x="671.75" y="106.07819828774203"/></g><g class="link" style="opacity: 0.8;"><path d="M223.25,241.0965325623887 A4.999999999999999 4.999999999999999 1.5840413639813633 0 1 218.25043857111353,236.0303093127646 L217.25043857111353,207.54420384998605 A4.999999999999999 4.999999999999999 1.5840413639813633 0 1 222.25,202.3011632497226 L222.25,188.9510670491457 A18.35009620057692 18.35009620057692 1.5840413639813633 0 0 203.90151336384793,207.54420384998605 L204.90151336384793,236.0303093127646 A18.35009620057692 18.35009620057692 1.5840413639813633 0 0 223.25,254.4466287629656 Z" style="fill: rgb(227, 26, 28);"/><title> → Flat glass melting
Forming scrap
12.5</title><text class="label" dy="0.35em" x="227.25" y="247.77158066267714"/></g><g class="link" style="opacity: 0.8;"><path d="M445.5,175.10611338460953 A18.35009620057692 18.35009620057692 1.5995559190929531 0 1 463.84250791152743,193.98387812317304 L462.84250791152743,228.07385190398708 A18.35009620057692 18.35009620057692 1.5995559190929531 0 1 444.5,246.56772624398596 L444.5,233.21763004340906 A4.999999999999999 4.999999999999999 1.5995559190929531 0 0 449.4979323571477,227.68996150542245 L450.4979323571477,193.5999877246084 A4.999999999999999 4.999999999999999 1.5995559190929531 0 0 445.5,188.45620958518643 Z" style="fill: rgb(227, 26, 28);"/><title>Flat glass forming → 
Forming scrap
12.5</title><text class="label" dy="0.35em" x="449.5" y="181.78116148489798"/></g><g class="link" style="opacity: 0.8;"><path d="M222.25,241.0965325623887 A943.3806129138989 943.3806129138989 0.04322057538785207 0 0 263.0107598272325,240.21554366969343 L404.1624209574336,234.1110861060971 A956.7307091144758 956.7307091144758 0.04322057538785207 0 1 445.5,233.21763004340906 L445.5,246.56772624398596 A943.3806129138989 943.3806129138989 0.04322057538785207 0 0 404.7392401727675,247.4487151366812 L263.5875790425664,253.55317270027757 A956.7307091144758 956.7307091144758 0.04322057538785207 0 1 222.25,254.4466287629656 Z" style="fill: rgb(227, 26, 28);"/><title> → 
Forming scrap
12.5</title><text class="label" dy="0.35em" x="449.5" y="239.8926781436975"/></g><g class="link" style="opacity: 0.8;"><path d="M223.25,99.45556824800695 A90.10050833091566 90.10050833091566 0.46247274254656645 0 0 263.44946395693614,89.99068913311707 L398.1234375323776,22.85136623926942 A103.94546199545181 103.94546199545181 0.46247274254656645 0 1 444.5,11.932102291113042 L444.5,25.777055955649203 A90.10050833091566 90.10050833091566 0.46247274254656645 0 0 404.30053604306386,35.24193507053907 L269.6265624676224,102.38125796438673 A103.94546199545181 103.94546199545181 0.46247274254656645 0 1 223.25,113.3005219125431 Z" style="fill: rgb(251, 154, 153);"/><title>Flat glass melting → Process emissions
Emission
13.0</title><text class="label" dy="0.35em" x="227.25" y="106.37804508027503"/></g><g class="link" style="opacity: 0.8;"><path d="M1,498.7588517073029 A80.20007401181786 80.20007401181786 0.7830064151625478 0 0 57.574218030022024,475.40426762909885 L167.34177683815142,366.16052970219124 A77.83834606606145 77.83834606606145 0.7830064151625478 0 1 222.25,343.4936902995206 L222.25,358.00767950866293 A63.32435685691915 63.32435685691915 0.7830064151625478 0 0 177.58014132996482,376.4479868853767 L67.81258252183544,485.6917248122843 A94.71406322096016 94.71406322096016 0.7830064151625478 0 1 1,513.2728409164451 Z" style="fill: rgb(178, 223, 138);"/><title>Soda Ash → Container glass melting
Soda Ash
13.6</title><text class="label" dy="0.35em" x="5" y="506.01584631187404"/></g><g class="link" style="opacity: 0.8;"><path d="M445.5,354.4981049891408 A233.15465151425744 233.15465151425744 0.183724277917372 0 1 488.09559001508467,358.42207087426686 L627.2318741274432,384.2763412046401 A216.30959597107548 216.30959597107548 0.183724277917372 0 0 666.75,387.9168067484468 L666.75,404.76186229162874 A233.15465151425744 233.15465151425744 0.183724277917372 0 1 624.1544099849154,400.8378964065027 L485.01812587255677,374.98362607612944 A216.30959597107548 216.30959597107548 0.183724277917372 0 0 445.5,371.34316053232277 Z" style="fill: rgb(255, 127, 0);"/><title>Container glass forming → Food
Food
15.8</title><text class="label" dy="0.35em" x="449.5" y="362.9206327607318"/></g><g class="link" style="opacity: 0.8;"><path d="M1,478.7029104259677 A60.14413273048266 60.14413273048266 1.1813617654633939 0 0 56.64077374485444,441.3934224042567 L148.05499593519824,218.64600860276602 A80.20007401181786 80.20007401181786 1.1813617654633939 0 1 222.25,168.8951257678105 L222.25,188.9510670491457 A60.14413273048266 60.14413273048266 1.1813617654633939 0 0 166.6092262551456,226.2605550708567 L75.19500406480176,449.00796887234736 A80.20007401181786 80.20007401181786 1.1813617654633939 0 1 1,498.7588517073029 Z" style="fill: rgb(178, 223, 138);"/><title>Soda Ash → Flat glass melting
Soda Ash
18.8</title><text class="label" dy="0.35em" x="5" y="488.7308810666353"/></g><g class="link" style="opacity: 0.8;"><path d="M223.25,483.79399371587675 A13.36403799539937 13.36403799539937 1.5765228694554698 0 1 209.88618112939423,470.3534264050555 L208.88618112939423,393.68399043498346 A13.36403799539937 13.36403799539937 1.5765228694554698 0 1 222.25,380.11681490908927 L222.25,358.00767950866293 A35.47317339582566 35.47317339582566 1.5765228694554698 0 0 186.777408243631,393.68399043498346 L187.777408243631,470.3534264050555 A35.47317339582566 35.47317339582566 1.5765228694554698 0 0 223.25,505.9031291163031 Z" style="fill: rgb(253, 191, 111);"/><title> → Container glass melting
Beverages
20.7</title><text class="label" dy="0.35em" x="227.25" y="494.8485614160899"/></g><g class="link" style="opacity: 0.8;"><path d="M222.25,483.79399371587675 A0 0 0 0 0 222.25,483.79399371587675 L445.5,483.79399371587675 A0 0 0 0 0 445.5,483.79399371587675 L445.5,505.9031291163031 A0 0 0 0 0 445.5,505.9031291163031 L222.25,505.9031291163031 A0 0 0 0 0 222.25,505.9031291163031 Z" style="fill: rgb(253, 191, 111);"/><title> → 
Beverages
20.7</title><text class="label" dy="0.35em" x="449.5" y="494.8485614160899"/></g><g class="link" style="opacity: 0.8;"><path d="M667.75,328.3972375787942 A30.793991300497346 30.793991300497346 1.578907263357964 0 1 698.5429783794028,359.440994250668 L697.5429783794028,482.4084080730486 A30.793991300497346 30.793991300497346 1.578907263357964 0 1 666.75,513.2728409164451 L666.75,491.1637055160188 A8.684855900071051 8.684855900071051 1.578907263357964 0 0 675.434570225062,482.22908424457137 L676.434570225062,359.2616704221908 A8.684855900071051 8.684855900071051 1.578907263357964 0 0 667.75,350.50637297922054 Z" style="fill: rgb(253, 191, 111);"/><title>Beverages → 
Beverages
20.7</title><text class="label" dy="0.35em" x="671.75" y="339.4518052790074"/></g><g class="link" style="opacity: 0.8;"><path d="M444.5,483.79399371587675 A0 0 0 0 0 444.5,483.79399371587675 L667.75,483.7939937158767 A0 0 0 0 1 667.75,483.7939937158767 L667.75,505.90312911630303 A0 0 0 0 0 667.75,505.90312911630303 L444.5,505.9031291163031 A0 0 0 0 1 444.5,505.9031291163031 Z" style="fill: rgb(253, 191, 111);"/><title> → 
Beverages
20.7</title><text class="label" dy="0.35em" x="671.75" y="494.84856141608986"/></g><g class="link" style="opacity: 0.8;"><path d="M667.75,287.33741469228823 A979.470088556747 979.470088556747 0.006092059560496521 0 0 673.7169532082751,287.31923911890567 L882.7829094523961,286.0455811048516 A1020.529911443253 1020.529911443253 0.006092059560496521 0 1 889,286.0266436033277 L889,327.08646648983375 A979.470088556747 979.470088556747 0.006092059560496521 0 0 883.0330467917249,327.1046420632163 L673.9670905476039,328.3783000772704 A1020.529911443253 1020.529911443253 0.006092059560496521 0 1 667.75,328.39723757879426 Z" style="fill: rgb(253, 191, 111);"/><title>Beverages → Beverages
Beverages
38.4</title><text class="label" dy="0.35em" x="671.75" y="307.86732613554125"/></g><g class="link" style="opacity: 0.8;"><path d="M1,156.30310908649028 A94.73093332736194 94.73093332736194 0.6821278464226945 0 1 60.72275263750426,177.50076731697808 L188.46327312131842,281.2499270897513 A53.591772481100506 53.591772481100506 0.6821278464226945 0 0 222.25,293.24199807563167 L222.25,334.38115892189313 A94.73093332736194 94.73093332736194 0.6821278464226945 0 1 162.52724736249576,313.18350069140536 L34.78672687868159,209.43434091863216 A53.591772481100506 53.591772481100506 0.6821278464226945 0 0 1,197.44226993275174 Z" style="fill: rgb(166, 206, 227);"/><title>Silica → Container glass melting
Silica
38.5</title><text class="label" dy="0.35em" x="5" y="176.872689509621"/></g><g class="link" style="opacity: 0.8;"><path d="M1,99.45556824800695 A0 0 0 0 0 1,99.45556824800695 L222.25,99.45556824800695 A0 0 0 0 0 222.25,99.45556824800695 L222.25,156.30310908649028 A0 0 0 0 0 222.25,156.30310908649028 L1,156.30310908649028 A0 0 0 0 0 1,156.30310908649028 Z" style="fill: rgb(166, 206, 227);"/><title>Silica → Flat glass melting
Silica
53.2</title><text class="label" dy="0.35em" x="5" y="127.87933866724862"/></g><g class="link" style="opacity: 0.8;"><path d="M445.5,99.45556824800695 A0 0 0 0 0 445.5,99.45556824800695 L666.75,99.45556824800695 A0 0 0 0 0 666.75,99.45556824800695 L666.75,162.2455207113871 A0 0 0 0 0 666.75,162.2455207113871 L445.5,162.2455207113871 A0 0 0 0 0 445.5,162.2455207113871 Z" style="fill: rgb(255, 255, 153);"/><title>Flat glass forming → Buildings
Buildings
58.8</title><text class="label" dy="0.35em" x="449.5" y="130.85054447969702"/></g><g class="link" style="opacity: 0.8;"><path d="M445.5,291.32914670220856 A968.4155208565338 968.4155208565338 0.019813832442758583 0 0 464.6867673920829,291.13905878620324 L646.3116953463297,287.53990188874536 A1031.584479143466 1031.584479143466 0.019813832442758583 0 1 666.75,287.33741469228823 L666.75,350.5063729792205 A968.4155208565338 968.4155208565338 0.019813832442758583 0 0 647.563232607917,350.69646089522587 L465.9383046536704,354.29561779268363 A1031.584479143466 1031.584479143466 0.019813832442758583 0 1 445.5,354.4981049891408 Z" style="fill: rgb(253, 191, 111);"/><title>Container glass forming → Beverages
Beverages
59.1</title><text class="label" dy="0.35em" x="449.5" y="322.9136258456747"/></g><g class="link" style="opacity: 0.8;"><path d="M223.25,113.30052191254313 A487.9309871499422 487.9309871499422 0.07656946715492818 0 0 260.57411957307596,111.87087938480423 L400.36780578761335,101.14598351861855 A576.9316284871218 576.9316284871218 0.07656946715492818 0 1 444.5,99.45556824800695 L444.5,188.45620958518646 A487.9309871499422 487.9309871499422 0.07656946715492818 0 0 407.17588042692404,189.88585211292536 L267.38219421238665,200.61074797911104 A576.9316284871218 576.9316284871218 0.07656946715492818 0 1 223.25,202.30116324972263 Z" style="fill: rgb(51, 160, 44);"/><title>Flat glass melting → Flat glass forming
Liquid glass
83.3</title><text class="label" dy="0.35em" x="227.25" y="157.80084258113288"/></g><g class="link" style="opacity: 0.8;"><path d="M223.25,303.2612489933216 A570.3744130512283 570.3744130512283 0.06601158179353339 0 0 260.8739787264847,302.01898868723754 L400.7029025787197,292.7752296920932 A663.9580549577946 663.9580549577946 0.06601158179353339 0 1 444.5,291.32914670220856 L444.5,384.91278860877486 A570.3744130512283 570.3744130512283 0.06601158179353339 0 0 406.8760212735153,386.1550489148589 L267.0470974212803,395.39880791000326 A663.9580549577946 663.9580549577946 0.06601158179353339 0 1 223.25,396.8448908998879 Z" style="fill: rgb(51, 160, 44);"/><title>Container glass melting → Container glass forming
Liquid glass
87.6</title><text class="label" dy="0.35em" x="227.25" y="350.05306994660475"/></g></g><g class="nodes"><g class="node" transform="translate(0,99.45556824800695)"><title>Silica</title><line x1="0" x2="0" y1="0" y2="97.98670168474479" style="display: inline; stroke: rgb(0, 0, 0);"/><rect class="node-body" width="1" height="97.98670168474479" style="fill: none;"/><text class="node-value" dy=".35em" text-anchor="middle" transform="translate(0.5,48.993350842372394) rotate(-90)" style="display: none;"/><text class="node-title" dy=".35em" text-anchor="end" transform="translate(-4,48.993350842372394)" style="display: inline;">Silica</text><rect class="node-click-target" x="-5" y="-5" width="10" height="102.98670168474479" style="fill: none; visibility: hidden; pointer-events: all;"/></g><g class="node" transform="translate(0,327.22031614988583)"><title>Limestone</title><line x1="0" x2="0" y1="0" y2="21.704548058947694" style="display: inline; stroke: rgb(0, 0, 0);"/><rect class="node-body" width="1" height="21.704548058947694" style="fill: none;"/><text class="node-value" dy=".35em" text-anchor="middle" transform="translate(0.5,10.852274029473847) rotate(-90)" style="display: none;"/><text class="node-title" dy=".35em" text-anchor="end" transform="translate(-4,10.852274029473847)" style="display: inline;">Limestone</text><rect class="node-click-target" x="-5" y="-5" width="10" height="26.704548058947694" style="fill: none; visibility: hidden; pointer-events: all;"/></g><g class="node" transform="translate(0,478.7029104259677)"><title>Soda Ash</title><line x1="0" x2="0" y1="0" y2="34.569930490477475" style="display: inline; stroke: rgb(0, 0, 0);"/><rect class="node-body" width="1" height="34.569930490477475" style="fill: none;"/><text class="node-value" dy=".35em" text-anchor="middle" transform="translate(0.5,17.284965245238737) rotate(-90)" style="display: none;"/><text class="node-title" dy=".35em" text-anchor="end" transform="translate(-4,17.284965245238737)" style="display: inline;">Soda Ash</text><rect class="node-click-target" x="-5" y="-5" width="10" height="39.569930490477475" style="fill: none; visibility: hidden; pointer-events: all;"/></g><g class="node" transform="translate(222.25,99.45556824800695)"><title>Flat glass melting</title><line x1="0" x2="0" y1="-5" y2="102.84559500171565" style="display: inline; stroke: rgb(0, 0, 0);"/><rect class="node-body" width="1" height="102.84559500171565" style="fill: none;"/><text class="node-value" dy=".35em" text-anchor="middle" transform="translate(0.5,51.422797500857826) rotate(-90)" style="display: none;"/><text class="node-title" dy=".35em" text-anchor="start" transform="translate(-4,-10)" style="display: inline;">Flat glass melting</text><rect class="node-click-target" x="-5" y="-5" width="10" height="107.84559500171565" style="fill: none; visibility: hidden; pointer-events: all;"/></g><g class="node" transform="translate(222.25,241.0965325623887)"><title/><line x1="0" x2="0" y1="-5" y2="13.350096200576928" style="display: none; stroke: rgb(0, 0, 0);"/><rect class="node-body" width="1" height="13.350096200576928" style="fill: none;"/><text class="node-value" dy=".35em" text-anchor="middle" transform="translate(0.5,6.675048100288464) rotate(-90)" style="display: none;"/><text class="node-title" dy=".35em" text-anchor="start" transform="translate(-4,-10)" style="display: none;"/><rect class="node-click-target" x="-5" y="-5" width="10" height="18.350096200576928" style="fill: none; visibility: hidden; pointer-events: all;"/></g><g class="node" transform="translate(222.25,293.24199807563167)"><title>Container glass melting</title><line x1="0" x2="0" y1="-5" y2="103.60289282425623" style="display: inline; stroke: rgb(0, 0, 0);"/><rect class="node-body" width="1" height="103.60289282425623" style="fill: none;"/><text class="node-value" dy=".35em" text-anchor="middle" transform="translate(0.5,51.801446412128115) rotate(-90)" style="display: none;"/><text class="node-title" dy=".35em" text-anchor="start" transform="translate(-4,-10)" style="display: inline;">Container glass melting</text><rect class="node-click-target" x="-5" y="-5" width="10" height="108.60289282425623" style="fill: none; visibility: hidden; pointer-events: all;"/></g><g class="node" transform="translate(222.25,435.64026021255404)"><title/><line x1="0" x2="0" y1="-5" y2="9.35836419065663" style="display: none; stroke: rgb(0, 0, 0);"/><rect class="node-body" width="1" height="9.35836419065663" style="fill: none;"/><text class="node-value" dy=".35em" text-anchor="middle" transform="translate(0.5,4.679182095328315) rotate(-90)" style="display: none;"/><text class="node-title" dy=".35em" text-anchor="start" transform="translate(-4,-10)" style="display: none;"/><rect class="node-click-target" x="-5" y="-5" width="10" height="14.35836419065663" style="fill: none; visibility: hidden; pointer-events: all;"/></g><g class="node" transform="translate(222.25,483.79399371587675)"><title/><line x1="0" x2="0" y1="-5" y2="29.478847200568396" style="display: none; stroke: rgb(0, 0, 0);"/><rect class="node-body" width="1" height="29.478847200568396" style="fill: none;"/><text class="node-value" dy=".35em" text-anchor="middle" transform="translate(0.5,14.739423600284198) rotate(-90)" style="display: none;"/><text class="node-title" dy=".35em" text-anchor="start" transform="translate(-4,-10)" style="display: none;"/><rect class="node-click-target" x="-5" y="-5" width="10" height="34.478847200568396" style="fill: none; visibility: hidden; pointer-events: all;"/></g><g class="node" transform="translate(444.5,11.932102291113042)"><title>Process emissions</title><line x1="0" x2="0" y1="0" y2="23.864204582226087" style="display: inline; stroke: rgb(0, 0, 0);"/><rect class="node-body" width="1" height="23.864204582226087" style="fill: none;"/><text class="node-value" dy=".35em" text-anchor="middle" transform="translate(0.5,11.932102291113043) rotate(-90)" style="display: none;"/><text class="node-title" dy=".35em" text-anchor="start" transform="translate(5,11.932102291113043)" style="display: inline;">Process emissions</text><rect class="node-click-target" x="-5" y="-5" width="10" height="28.864204582226087" style="fill: none; visibility: hidden; pointer-events: all;"/></g><g class="node" transform="translate(444.5,99.45556824800695)"><title>Flat glass forming</title><line x1="0" x2="0" y1="-5" y2="89.0006413371795" style="display: inline; stroke: rgb(0, 0, 0);"/><rect class="node-body" width="1" height="89.0006413371795" style="fill: none;"/><text class="node-value" dy=".35em" text-anchor="middle" transform="translate(0.5,44.50032066858975) rotate(-90)" style="display: none;"/><text class="node-title" dy=".35em" text-anchor="start" transform="translate(-4,-10)" style="display: inline;">Flat glass forming</text><rect class="node-click-target" x="-5" y="-5" width="10" height="94.0006413371795" style="fill: none; visibility: hidden; pointer-events: all;"/></g><g class="node" transform="translate(444.5,233.21763004340906)"><title/><line x1="0" x2="0" y1="-5" y2="13.350096200576928" style="display: none; stroke: rgb(0, 0, 0);"/><rect class="node-body" width="1" height="13.350096200576928" style="fill: none;"/><text class="node-value" dy=".35em" text-anchor="middle" transform="translate(0.5,6.675048100288464) rotate(-90)" style="display: none;"/><text class="node-title" dy=".35em" text-anchor="start" transform="translate(-4,-10)" style="display: none;"/><rect class="node-click-target" x="-5" y="-5" width="10" height="18.350096200576928" style="fill: none; visibility: hidden; pointer-events: all;"/></g><g class="node" transform="translate(444.5,291.32914670220856)"><title>Container glass forming</title><line x1="0" x2="0" y1="-5" y2="93.58364190656636" style="display: inline; stroke: rgb(0, 0, 0);"/><rect class="node-body" width="1" height="93.58364190656636" style="fill: none;"/><text class="node-value" dy=".35em" text-anchor="middle" transform="translate(0.5,46.79182095328318) rotate(-90)" style="display: none;"/><text class="node-title" dy=".35em" text-anchor="start" transform="translate(-4,-10)" style="display: inline;">Container glass forming</text><rect class="node-click-target" x="-5" y="-5" width="10" height="98.58364190656636" style="fill: none; visibility: hidden; pointer-events: all;"/></g><g class="node" transform="translate(444.5,429.6742090669975)"><title/><line x1="0" x2="0" y1="-5" y2="9.35836419065663" style="display: none; stroke: rgb(0, 0, 0);"/><rect class="node-body" width="1" height="9.35836419065663" style="fill: none;"/><text class="node-value" dy=".35em" text-anchor="middle" transform="translate(0.5,4.679182095328315) rotate(-90)" style="display: none;"/><text class="node-title" dy=".35em" text-anchor="start" transform="translate(-4,-10)" style="display: none;"/><rect class="node-click-target" x="-5" y="-5" width="10" height="14.35836419065663" style="fill: none; visibility: hidden; pointer-events: all;"/></g><g class="node" transform="translate(444.5,483.79399371587675)"><title/><line x1="0" x2="0" y1="-5" y2="29.478847200568396" style="display: none; stroke: rgb(0, 0, 0);"/><rect class="node-body" width="1" height="29.478847200568396" style="fill: none;"/><text class="node-value" dy=".35em" text-anchor="middle" transform="translate(0.5,14.739423600284198) rotate(-90)" style="display: none;"/><text class="node-title" dy=".35em" text-anchor="start" transform="translate(-4,-10)" style="display: none;"/><rect class="node-click-target" x="-5" y="-5" width="10" height="34.478847200568396" style="fill: none; visibility: hidden; pointer-events: all;"/></g><g class="node" transform="translate(666.75,99.45556824800695)"><title>Buildings</title><line x1="0" x2="0" y1="-5" y2="62.78995246338013" style="display: inline; stroke: rgb(0, 0, 0);"/><rect class="node-body" width="1" height="62.78995246338013" style="fill: none;"/><text class="node-value" dy=".35em" text-anchor="middle" transform="translate(0.5,31.394976231690066) rotate(-90)" style="display: none;"/><text class="node-title" dy=".35em" text-anchor="start" transform="translate(-4,-10)" style="display: inline;">Buildings</text><rect class="node-click-target" x="-5" y="-5" width="10" height="67.78995246338013" style="fill: none; visibility: hidden; pointer-events: all;"/></g><g class="node" transform="translate(666.75,199.65595448061333)"><title>Automotive</title><line x1="0" x2="0" y1="-5" y2="4.539032708196146" style="display: inline; stroke: rgb(0, 0, 0);"/><rect class="node-body" width="1" height="4.539032708196146" style="fill: none;"/><text class="node-value" dy=".35em" text-anchor="middle" transform="translate(0.5,2.269516354098073) rotate(-90)" style="display: none;"/><text class="node-title" dy=".35em" text-anchor="start" transform="translate(-4,-10)" style="display: inline;">Automotive</text><rect class="node-click-target" x="-5" y="-5" width="10" height="9.539032708196146" style="fill: none; visibility: hidden; pointer-events: all;"/></g><g class="node" transform="translate(666.75,241.60542095803572)"><title>Other FG</title><line x1="0" x2="0" y1="0" y2="8.321559965026296" style="display: inline; stroke: rgb(0, 0, 0);"/><rect class="node-body" width="1" height="8.321559965026296" style="fill: none;"/><text class="node-value" dy=".35em" text-anchor="middle" transform="translate(0.5,4.160779982513148) rotate(-90)" style="display: none;"/><text class="node-title" dy=".35em" text-anchor="start" transform="translate(5,4.160779982513148)" style="display: inline;">Other FG</text><rect class="node-click-target" x="-5" y="-5" width="10" height="13.321559965026296" style="fill: none; visibility: hidden; pointer-events: all;"/></g><g class="node" transform="translate(666.75,287.33741469228823)"><title>Beverages</title><line x1="0" x2="0" y1="-5" y2="63.16895828693225" style="display: inline; stroke: rgb(0, 0, 0);"/><rect class="node-body" width="1" height="63.16895828693225" style="fill: none;"/><text class="node-value" dy=".35em" text-anchor="middle" transform="translate(0.5,31.584479143466126) rotate(-90)" style="display: none;"/><text class="node-title" dy=".35em" text-anchor="start" transform="translate(-4,-10)" style="display: inline;">Beverages</text><rect class="node-click-target" x="-5" y="-5" width="10" height="68.16895828693225" style="fill: none; visibility: hidden; pointer-events: all;"/></g><g class="node" transform="translate(666.75,387.9168067484468)"><title>Food</title><line x1="0" x2="0" y1="-5" y2="16.845055543181957" style="display: inline; stroke: rgb(0, 0, 0);"/><rect class="node-body" width="1" height="16.845055543181957" style="fill: none;"/><text class="node-value" dy=".35em" text-anchor="middle" transform="translate(0.5,8.422527771590978) rotate(-90)" style="display: none;"/><text class="node-title" dy=".35em" text-anchor="start" transform="translate(-4,-10)" style="display: inline;">Food</text><rect class="node-click-target" x="-5" y="-5" width="10" height="21.845055543181957" style="fill: none; visibility: hidden; pointer-events: all;"/></g><g class="node" transform="translate(666.75,442.172296060855)"><title>Other CG</title><line x1="0" x2="0" y1="-5" y2="4.211263885795461" style="display: inline; stroke: rgb(0, 0, 0);"/><rect class="node-body" width="1" height="4.211263885795461" style="fill: none;"/><text class="node-value" dy=".35em" text-anchor="middle" transform="translate(0.5,2.1056319428977304) rotate(-90)" style="display: none;"/><text class="node-title" dy=".35em" text-anchor="start" transform="translate(-4,-10)" style="display: inline;">Other CG</text><rect class="node-click-target" x="-5" y="-5" width="10" height="9.21126388579546" style="fill: none; visibility: hidden; pointer-events: all;"/></g><g class="node" transform="translate(666.75,483.7939937158767)"><title/><line x1="0" x2="0" y1="-5" y2="29.47884720056834" style="display: none; stroke: rgb(0, 0, 0);"/><rect class="node-body" width="1" height="29.47884720056834" style="fill: none;"/><text class="node-value" dy=".35em" text-anchor="middle" transform="translate(0.5,14.73942360028417) rotate(-90)" style="display: none;"/><text class="node-title" dy=".35em" text-anchor="start" transform="translate(-4,-10)" style="display: none;"/><rect class="node-click-target" x="-5" y="-5" width="10" height="34.47884720056834" style="fill: none; visibility: hidden; pointer-events: all;"/></g><g class="node" transform="translate(889,99.45556824800695)"><title>Buildings</title><line x1="0" x2="0" y1="0" y2="13.245260079470143" style="display: inline; stroke: rgb(0, 0, 0);"/><rect class="node-body" width="1" height="13.245260079470143" style="fill: none;"/><text class="node-value" dy=".35em" text-anchor="middle" transform="translate(0.5,6.622630039735071) rotate(-90)" style="display: none;"/><text class="node-title" dy=".35em" text-anchor="start" transform="translate(5,6.622630039735071)" style="display: inline;">Buildings</text><rect class="node-click-target" x="-5" y="-5" width="10" height="18.245260079470143" style="fill: none; visibility: hidden; pointer-events: all;"/></g><g class="node" transform="translate(889,198.95071172636517)"><title>Automotive</title><line x1="0" x2="0" y1="0" y2="1" style="display: inline; stroke: rgb(0, 0, 0);"/><rect class="node-body" width="1" height="1" style="fill: none;"/><text class="node-value" dy=".35em" text-anchor="middle" transform="translate(0.5,0.4130242390372416) rotate(0)" style="display: none;"/><text class="node-title" dy=".35em" text-anchor="start" transform="translate(5,0.4130242390372416)" style="display: inline;">Automotive</text><rect class="node-click-target" x="-5" y="-5" width="10" height="6" style="fill: none; visibility: hidden; pointer-events: all;"/></g><g class="node" transform="translate(889,286.0266436033277)"><title>Beverages</title><line x1="0" x2="0" y1="0" y2="41.05982288650597" style="display: inline; stroke: rgb(0, 0, 0);"/><rect class="node-body" width="1" height="41.05982288650597" style="fill: none;"/><text class="node-value" dy=".35em" text-anchor="middle" transform="translate(0.5,20.529911443252985) rotate(-90)" style="display: none;"/><text class="node-title" dy=".35em" text-anchor="start" transform="translate(5,20.529911443252985)" style="display: inline;">Beverages</text><rect class="node-click-target" x="-5" y="-5" width="10" height="46.05982288650597" style="fill: none; visibility: hidden; pointer-events: all;"/></g><g class="node" transform="translate(889,413.33634988872177)"><title>Food</title><line x1="0" x2="0" y1="0" y2="10.949286103068289" style="display: inline; stroke: rgb(0, 0, 0);"/><rect class="node-body" width="1" height="10.949286103068289" style="fill: none;"/><text class="node-value" dy=".35em" text-anchor="middle" transform="translate(0.5,5.474643051534144) rotate(-90)" style="display: none;"/><text class="node-title" dy=".35em" text-anchor="start" transform="translate(5,5.474643051534144)" style="display: inline;">Food</text><rect class="node-click-target" x="-5" y="-5" width="10" height="15.949286103068289" style="fill: none; visibility: hidden; pointer-events: all;"/></g><g class="node" transform="translate(889,510.53551939067813)"><title>Other CG</title><line x1="0" x2="0" y1="0" y2="2.7373215257670154" style="display: inline; stroke: rgb(0, 0, 0);"/><rect class="node-body" width="1" height="2.7373215257670154" style="fill: none;"/><text class="node-value" dy=".35em" text-anchor="middle" transform="translate(0.5,1.3686607628835077) rotate(-90)" style="display: none;"/><text class="node-title" dy=".35em" text-anchor="start" transform="translate(5,1.3686607628835077)" style="display: inline;">Other CG</text><rect class="node-click-target" x="-5" y="-5" width="10" height="7.737321525767015" style="fill: none; visibility: hidden; pointer-events: all;"/></g></g><g class="slice-titles"/></g></svg>